<svg preserveAspectRatio="none" width="100%" height="100%" overflow="visible" style="display: block;" viewBox="0 0 71 24" fill="none" xmlns="http://www.w3.org/2000/svg">
<g id="Vector">
<path d="M68.7783 2.21315V0H71V2.21315H68.7783ZM68.9449 19.3651V5.53288H70.8889V19.3651H68.9449Z" fill="var(--fill-0, #161512)"/>
<path d="M60.7844 6.88743C61.9786 5.47655 63.145 5.17224 66.2831 5.17224V7.02575C63.1172 7.02575 60.0901 8.02167 60.0901 11.867V19.4194H58.1462V5.5872H60.0901V6.66612L58.9286 9.10246C58.9286 9.10246 60.3401 7.41305 60.7844 6.88743Z" fill="var(--fill-0, #161512)"/>
<path d="M41.4844 12.2607C41.4844 8.13866 44.4559 5.01259 48.6494 5.01259C52.815 5.01259 55.7865 8.13866 55.7865 12.2607C55.7865 16.3827 52.815 19.7024 48.6494 19.7024C44.4559 19.7024 41.4844 16.3827 41.4844 12.2607ZM43.4284 12.2607C43.4284 15.3037 45.2058 17.8489 48.6494 17.8489C52.0652 17.8489 53.8426 15.3037 53.8426 12.2607C53.8426 9.21758 52.0652 6.8661 48.6494 6.8661C45.2058 6.8661 43.4284 9.21758 43.4284 12.2607Z" fill="var(--fill-0, #161512)"/>
<path d="M28.3605 17.4945L36.5807 7.92261L38.6769 6.55091L35.0255 7.31399H28.5271V5.48814H39.6633V7.31399L31.693 16.5539L29.3325 18.4904L32.5261 17.4945H39.9688V19.3203H28.3605V17.4945Z" fill="var(--fill-0, #161512)"/>
<path d="M12.2303 11.8957H22.5547V13.6367C17.2136 13.6789 12.3159 17.9717 12.2316 24H10.4832V7.60464C8.30759 11.3112 4.27209 13.6362 0 13.6362V11.8957C5.37184 11.8957 10.3177 7.59009 10.4025 1.53195H12.2303V11.8957ZM12.2303 17.7937C13.2737 16.0675 14.7236 14.6492 16.4114 13.6362H12.2303V17.7937Z" fill="var(--fill-0, #161512)"/>
</g>
</svg>
