<svg preserveAspectRatio="none" width="100%" height="100%" overflow="visible" style="display: block;" viewBox="0 0 95 32" fill="none" xmlns="http://www.w3.org/2000/svg">
<g id="Vector">
<path d="M92.0273 2.95087V0H95V2.95087H92.0273ZM92.2503 25.8201V7.37718H94.8514V25.8201H92.2503Z" fill="#292827"/>
<path d="M81.3313 9.18324C82.9291 7.30206 84.4897 6.89632 88.6887 6.89632V9.36767C84.4526 9.36767 80.4023 10.6956 80.4023 15.8227V25.8925H77.8012V7.4496H80.4023V8.88815L78.8481 12.1366C78.8481 12.1366 80.7367 9.88407 81.3313 9.18324Z" fill="#292827"/>
<path d="M55.5073 16.3475C55.5073 10.8516 59.4833 6.68345 65.0942 6.68345C70.668 6.68345 74.644 10.8516 74.644 16.3475C74.644 21.8435 70.668 26.2698 65.0942 26.2698C59.4833 26.2698 55.5073 21.8435 55.5073 16.3475ZM58.1084 16.3475C58.1084 20.405 60.4866 23.7985 65.0942 23.7985C69.6647 23.7985 72.0429 20.405 72.0429 16.3475C72.0429 12.2901 69.6647 9.1548 65.0942 9.1548C60.4866 9.1548 58.1084 12.2901 58.1084 16.3475Z" fill="#292827"/>
<path d="M37.9471 23.326L48.946 10.5635L51.7508 8.73455L46.8652 9.75199H38.1701V7.31752H53.0706V9.75199L42.4062 22.0719L39.2477 24.6539L43.5209 23.326H53.4794V25.7605H37.9471V23.326Z" fill="#292827"/>
<path d="M16.3645 15.861H30.1788V18.1822C23.0323 18.2385 16.4791 23.9623 16.3662 32H14.0268V10.1395C11.1158 15.0816 5.71618 18.1816 0 18.1816V15.861C7.18767 15.861 13.8054 10.1201 13.9188 2.04261H16.3645V15.861ZM16.3645 23.7249C17.7606 21.4234 19.7006 19.5322 21.9589 18.1816H16.3645V23.7249Z" fill="#292827"/>
</g>
</svg>
