<svg preserveAspectRatio="none" width="100%" height="100%" overflow="visible" style="display: block;" viewBox="0 0 28 28" fill="none" xmlns="http://www.w3.org/2000/svg">
<path id="Vector" d="M19.7236 8.38048C19.7292 8.38048 19.7367 8.38048 19.7441 8.38048C19.9384 8.38048 20.1187 8.4409 20.2665 8.54502L20.2637 8.54316C20.3716 8.63705 20.4441 8.76906 20.4618 8.9178V8.92059C20.4803 9.034 20.4906 9.16414 20.4906 9.29708C20.4906 9.3575 20.4887 9.417 20.4841 9.47649V9.46813C20.2749 11.6704 19.3676 17.011 18.9065 19.4764C18.7113 20.5203 18.3274 20.8699 17.9555 20.9033C17.1477 20.9786 16.5341 20.3697 15.7514 19.8566C14.5262 19.0525 13.8336 18.5523 12.6446 17.7687C11.2697 16.8641 12.1612 16.3649 12.944 15.5525C13.1494 15.3386 16.7108 12.0989 16.7805 11.8052C16.7842 11.7875 16.7861 11.768 16.7861 11.7475C16.7861 11.675 16.7591 11.609 16.7154 11.5588C16.6671 11.5272 16.6066 11.5096 16.5434 11.5096C16.5016 11.5096 16.4616 11.5179 16.4244 11.5319L16.4263 11.5309C16.3036 11.5588 14.3464 12.8522 10.5548 15.4112C10.1412 15.7375 9.61873 15.9438 9.0498 15.968H9.04422C8.23825 15.8704 7.50664 15.691 6.81222 15.4353L6.88101 15.4576C6.00903 15.1732 5.31647 15.0235 5.37596 14.542C5.40757 14.2916 5.75277 14.0353 6.41155 13.7732C10.4696 12.005 13.1757 10.8396 14.5299 10.2769C16.0238 9.48393 17.7556 8.83134 19.5768 8.40837L19.7227 8.37955L19.7236 8.38048ZM13.9675 0C6.2498 0.0185923 0 6.27955 0 14C0 21.7316 6.26746 28 14 28C21.7325 28 28 21.7325 28 14C28 6.27955 21.7502 0.0185923 14.0344 0H14.0325C14.0108 0 13.9892 0 13.9675 0Z" fill="var(--fill-0, #FFFBF9)"/>
</svg>
